<?xml version="1.0" ?><svg data-name="Layer 1" id="Layer_1" viewBox="0 0 256 256" xmlns="http://www.w3.org/2000/svg"><defs><style>.cls-1{fill:#effafe;}.cls-2{fill:#eb5639;}.cls-3{fill:#40bdff;}.cls-4{fill:#2197f7;}.cls-5{fill:#e4ebed;}.cls-6{fill:#fd0;}.cls-7{fill:#efc803;}.cls-8{fill:#d84936;}.cls-9{fill:#263238;}</style></defs><title/><path class="cls-1" d="M58.61,190.78H184.17V65.22H58.61ZM178.56,128a8.61,8.61,0,1,1-8.61-8.61A8.62,8.62,0,0,1,178.56,128Zm-57.17,39.95a8.61,8.61,0,1,1-8.61,8.61A8.62,8.62,0,0,1,121.39,167.95Zm2.36-31.68-.36.1v19.36a2,2,0,0,1-4,0V136.37l-.36-.1a8.6,8.6,0,0,1,0-16.54l.36-.1v-25a2,2,0,0,1,4,0v25l.36.1a8.6,8.6,0,0,1,0,16.54ZM121.39,88A8.61,8.61,0,1,1,130,79.44,8.62,8.62,0,0,1,121.39,88ZM81.44,128a8.61,8.61,0,1,1-8.61-8.61A8.62,8.62,0,0,1,81.44,128Z"/><circle class="cls-2" cx="121.39" cy="128" r="4.61"/><circle class="cls-3" cx="72.83" cy="128" r="4.61"/><circle class="cls-3" cx="121.39" cy="79.44" r="4.61"/><circle class="cls-3" cx="121.39" cy="176.56" r="4.61"/><path class="cls-3" d="M77.44,237.94A8,8,0,0,0,85.2,244h80.38a8,8,0,0,0,7.76-6.06L180.83,208H70Z"/><path class="cls-3" d="M173.34,18.06A8,8,0,0,0,165.58,12H85.2a8,8,0,0,0-7.76,6.06L70,48H180.83Z"/><path class="cls-4" d="M170.83,208l-7.49,29.94a8,8,0,0,1-7.76,6.06h10a8,8,0,0,0,7.76-6.06L180.83,208Z"/><path class="cls-4" d="M173.34,18.06A8,8,0,0,0,165.58,12h-10a8,8,0,0,1,7.76,6.06L170.83,48h10Z"/><circle class="cls-3" cx="169.95" cy="128" r="4.61"/><path class="cls-3" d="M206,123.39h-4.61v9.22H206a4.61,4.61,0,1,0,0-9.22Z"/><rect class="cls-5" height="125.56" width="5" x="179.17" y="65.22"/><path class="cls-6" d="M189.39,52h-131a8,8,0,0,0-8,8V196a8,8,0,0,0,8,8h131a8,8,0,0,0,8-8V60A8,8,0,0,0,189.39,52Zm-1.22,11.22V192.78a2,2,0,0,1-2,2H56.61a2,2,0,0,1-2-2V63.22a2,2,0,0,1,2-2H186.17A2,2,0,0,1,188.17,63.22Z"/><path class="cls-4" d="M72.83,123.39a4.59,4.59,0,0,0-1,.12,4.6,4.6,0,0,1,0,9,4.61,4.61,0,1,0,1-9.1Z"/><path class="cls-4" d="M121.39,74.83a4.59,4.59,0,0,0-1,.12,4.6,4.6,0,0,1,0,9,4.61,4.61,0,1,0,1-9.1Z"/><path class="cls-4" d="M121.39,171.95a4.59,4.59,0,0,0-1,.12,4.6,4.6,0,0,1,0,9,4.61,4.61,0,1,0,1-9.1Z"/><path class="cls-4" d="M169.95,123.39a4.59,4.59,0,0,0-1,.12,4.6,4.6,0,0,1,0,9,4.61,4.61,0,1,0,1-9.1Z"/><path class="cls-7" d="M189.39,52h-5a8,8,0,0,1,8,8V196a8,8,0,0,1-8,8h5a8,8,0,0,0,8-8V60A8,8,0,0,0,189.39,52Z"/><path class="cls-8" d="M121.39,123.39a4.58,4.58,0,0,0-1,.12,4.6,4.6,0,0,1,0,9,4.6,4.6,0,1,0,1-9.1Z"/><path class="cls-6" d="M217.61,180.17v-4h4a1,1,0,0,0,0-2h-4v-4a1,1,0,1,0-2,0v4h-4a1,1,0,0,0,0,2h4v4a1,1,0,0,0,2,0Z"/><path class="cls-3" d="M21,221v-4h4a1,1,0,0,0,0-2H21v-4a1,1,0,0,0-2,0v4H15a1,1,0,0,0,0,2h4v4a1,1,0,0,0,2,0Z"/><path class="cls-6" d="M210.11,31.5V28.91l1.83,1.83a1,1,0,0,0,1.41-1.41l-1.83-1.83h2.59a1,1,0,0,0,0-2h-2.59l1.83-1.83a1,1,0,0,0-1.41-1.41l-1.83,1.83V21.5a1,1,0,0,0-2,0v2.59l-1.83-1.83a1,1,0,1,0-1.41,1.41l1.83,1.83h-2.59a1,1,0,0,0,0,2h2.59l-1.83,1.83a1,1,0,0,0,1.41,1.41l1.83-1.83V31.5a1,1,0,1,0,2,0Z"/><path class="cls-3" d="M231.52,101.84a6,6,0,1,1,6,6A6,6,0,0,1,231.52,101.84Zm10,0a4,4,0,1,0-4,4A4,4,0,0,0,241.52,101.84Z"/><path class="cls-3" d="M226.58,230.17a6,6,0,1,1,6,6A6,6,0,0,1,226.58,230.17Zm10,0a4,4,0,1,0-4,4A4,4,0,0,0,236.58,230.17Z"/><path class="cls-6" d="M23,118.89a6,6,0,1,1,6,6A6,6,0,0,1,23,118.89Zm10,0a4,4,0,1,0-4,4A4,4,0,0,0,33,118.89Z"/><path class="cls-9" d="M186.17,60.72H56.61a2.5,2.5,0,0,0-2.5,2.5V192.78a2.5,2.5,0,0,0,2.5,2.5H186.17a2.5,2.5,0,0,0,2.5-2.5V63.22A2.5,2.5,0,0,0,186.17,60.72Zm-2.5,129.56H59.11V65.72H183.67Z"/><path class="cls-9" d="M121.39,88.55a9.11,9.11,0,1,0-9.11-9.11A9.12,9.12,0,0,0,121.39,88.55Zm0-13.22a4.11,4.11,0,1,1-4.11,4.11A4.11,4.11,0,0,1,121.39,75.33Z"/><path class="cls-9" d="M121.39,185.67a9.11,9.11,0,1,0-9.11-9.11A9.12,9.12,0,0,0,121.39,185.67Zm0-13.22a4.11,4.11,0,1,1-4.11,4.11A4.11,4.11,0,0,1,121.39,172.45Z"/><path class="cls-9" d="M169.95,137.11a9.11,9.11,0,1,0-9.11-9.11A9.12,9.12,0,0,0,169.95,137.11Zm0-13.22a4.11,4.11,0,1,1-4.11,4.11A4.11,4.11,0,0,1,169.95,123.89Z"/><path class="cls-9" d="M72.83,137.11A9.11,9.11,0,1,0,63.72,128,9.12,9.12,0,0,0,72.83,137.11Zm0-13.22A4.11,4.11,0,1,1,68.72,128,4.11,4.11,0,0,1,72.83,123.89Z"/><path class="cls-9" d="M121.39,158.23a2.5,2.5,0,0,0,2.5-2.5v-19a9.1,9.1,0,0,0,0-17.5V94.66a2.5,2.5,0,0,0-5,0v24.59a9.1,9.1,0,0,0,0,17.5v19A2.5,2.5,0,0,0,121.39,158.23ZM117.28,128a4.11,4.11,0,1,1,4.11,4.11A4.11,4.11,0,0,1,117.28,128Z"/><path class="cls-9" d="M206,118.89h-4.11V60a12.51,12.51,0,0,0-12.5-12.5h-8L173.71,17A12.48,12.48,0,0,0,161.58,7.5H81.2A12.48,12.48,0,0,0,69.07,17L61.44,47.5h-8A12.51,12.51,0,0,0,40.89,60V196a12.51,12.51,0,0,0,12.5,12.5h8L69.07,239A12.48,12.48,0,0,0,81.2,248.5h80.38A12.48,12.48,0,0,0,173.71,239l7.63-30.53h8a12.51,12.51,0,0,0,12.5-12.5V137.11H206a9.11,9.11,0,1,0,0-18.22ZM73.92,18.18A7.49,7.49,0,0,1,81.2,12.5h80.38a7.49,7.49,0,0,1,7.28,5.68l7.33,29.32H66.59Zm94.94,219.64a7.49,7.49,0,0,1-7.28,5.68H81.2a7.49,7.49,0,0,1-7.28-5.68L66.59,208.5h109.6Zm28-41.82a7.51,7.51,0,0,1-7.5,7.5h-136a7.51,7.51,0,0,1-7.5-7.5V60a7.51,7.51,0,0,1,7.5-7.5h136a7.51,7.51,0,0,1,7.5,7.5ZM206,132.11h-4.11v-8.22H206a4.11,4.11,0,1,1,0,8.22Z"/></svg>